<svg width="1440" height="1024" viewBox="0 0 1440 1024" fill="none" xmlns="http://www.w3.org/2000/svg">
<g clip-path="url(#clip0_22_134)">
<rect width="1440" height="1024" fill="#120720"/>
<g filter="url(#filter0_f_22_134)">
<rect x="37.7064" y="885.648" width="779.669" height="152.14" transform="rotate(-61.5875 37.7064 885.648)" fill="url(#paint0_linear_22_134)" fill-opacity="0.45"/>
</g>
<g filter="url(#filter1_f_22_134)">
<rect x="20.4072" y="1105.76" width="779.669" height="152.14" transform="rotate(-61.5875 20.4072 1105.76)" fill="url(#paint1_linear_22_134)" fill-opacity="0.45"/>
</g>
<path fill-rule="evenodd" clip-rule="evenodd" d="M1387.5 338C1384.46 338 1382 335.538 1382 332.5C1382 329.462 1384.46 327 1387.5 327C1390.54 327 1393 329.462 1393 332.5C1393 335.538 1390.54 338 1387.5 338ZM1353.5 338C1350.46 338 1348 335.538 1348 332.5C1348 329.462 1350.46 327 1353.5 327C1356.54 327 1359 329.462 1359 332.5C1359 335.538 1356.54 338 1353.5 338ZM1280 332.5C1280 335.538 1282.46 338 1285.5 338C1288.54 338 1291 335.538 1291 332.5C1291 329.462 1288.54 327 1285.5 327C1282.46 327 1280 329.462 1280 332.5ZM1319.5 338C1316.46 338 1314 335.538 1314 332.5C1314 329.462 1316.46 327 1319.5 327C1322.54 327 1325 329.462 1325 332.5C1325 335.538 1322.54 338 1319.5 338ZM1382 380.5C1382 383.538 1384.46 386 1387.5 386C1390.54 386 1393 383.538 1393 380.5C1393 377.462 1390.54 375 1387.5 375C1384.46 375 1382 377.462 1382 380.5ZM1353.5 386C1350.46 386 1348 383.538 1348 380.5C1348 377.462 1350.46 375 1353.5 375C1356.54 375 1359 377.462 1359 380.5C1359 383.538 1356.54 386 1353.5 386ZM1280 380.5C1280 383.538 1282.46 386 1285.5 386C1288.54 386 1291 383.538 1291 380.5C1291 377.462 1288.54 375 1285.5 375C1282.46 375 1280 377.462 1280 380.5ZM1319.5 386C1316.46 386 1314 383.538 1314 380.5C1314 377.462 1316.46 375 1319.5 375C1322.54 375 1325 377.462 1325 380.5C1325 383.538 1322.54 386 1319.5 386ZM1382 428.5C1382 431.538 1384.46 434 1387.5 434C1390.54 434 1393 431.538 1393 428.5C1393 425.462 1390.54 423 1387.5 423C1384.46 423 1382 425.462 1382 428.5ZM1353.5 434C1350.46 434 1348 431.538 1348 428.5C1348 425.462 1350.46 423 1353.5 423C1356.54 423 1359 425.462 1359 428.5C1359 431.538 1356.54 434 1353.5 434ZM1280 428.5C1280 431.538 1282.46 434 1285.5 434C1288.54 434 1291 431.538 1291 428.5C1291 425.462 1288.54 423 1285.5 423C1282.46 423 1280 425.462 1280 428.5ZM1319.5 434C1316.46 434 1314 431.538 1314 428.5C1314 425.462 1316.46 423 1319.5 423C1322.54 423 1325 425.462 1325 428.5C1325 431.538 1322.54 434 1319.5 434ZM1382 476.5C1382 479.538 1384.46 482 1387.5 482C1390.54 482 1393 479.538 1393 476.5C1393 473.462 1390.54 471 1387.5 471C1384.46 471 1382 473.462 1382 476.5ZM1353.5 482C1350.46 482 1348 479.538 1348 476.5C1348 473.462 1350.46 471 1353.5 471C1356.54 471 1359 473.462 1359 476.5C1359 479.538 1356.54 482 1353.5 482ZM1280 476.5C1280 479.538 1282.46 482 1285.5 482C1288.54 482 1291 479.538 1291 476.5C1291 473.462 1288.54 471 1285.5 471C1282.46 471 1280 473.462 1280 476.5ZM1319.5 482C1316.46 482 1314 479.538 1314 476.5C1314 473.462 1316.46 471 1319.5 471C1322.54 471 1325 473.462 1325 476.5C1325 479.538 1322.54 482 1319.5 482ZM1382 524.5C1382 527.538 1384.46 530 1387.5 530C1390.54 530 1393 527.538 1393 524.5C1393 521.462 1390.54 519 1387.5 519C1384.46 519 1382 521.462 1382 524.5ZM1353.5 530C1350.46 530 1348 527.538 1348 524.5C1348 521.462 1350.46 519 1353.5 519C1356.54 519 1359 521.462 1359 524.5C1359 527.538 1356.54 530 1353.5 530ZM1280 524.5C1280 527.538 1282.46 530 1285.5 530C1288.54 530 1291 527.538 1291 524.5C1291 521.462 1288.54 519 1285.5 519C1282.46 519 1280 521.462 1280 524.5ZM1319.5 530C1316.46 530 1314 527.538 1314 524.5C1314 521.462 1316.46 519 1319.5 519C1322.54 519 1325 521.462 1325 524.5C1325 527.538 1322.54 530 1319.5 530ZM1382.02 572C1382.01 571.835 1382 571.669 1382 571.5C1382 568.462 1384.46 566 1387.5 566C1390.54 566 1393 568.462 1393 571.5C1393 571.669 1392.99 571.835 1392.98 572C1392.99 572.165 1393 572.331 1393 572.5C1393 575.538 1390.54 578 1387.5 578C1384.46 578 1382 575.538 1382 572.5C1382 572.331 1382.01 572.165 1382.02 572ZM1348.02 572C1348.01 571.835 1348 571.669 1348 571.5C1348 568.462 1350.46 566 1353.5 566C1356.54 566 1359 568.462 1359 571.5C1359 571.669 1358.99 571.835 1358.98 572C1358.99 572.165 1359 572.331 1359 572.5C1359 575.538 1356.54 578 1353.5 578C1350.46 578 1348 575.538 1348 572.5C1348 572.331 1348.01 572.165 1348.02 572ZM1280.02 572C1280.01 571.835 1280 571.669 1280 571.5C1280 568.462 1282.46 566 1285.5 566C1288.54 566 1291 568.462 1291 571.5C1291 571.669 1290.99 571.835 1290.98 572C1290.99 572.165 1291 572.331 1291 572.5C1291 575.538 1288.54 578 1285.5 578C1282.46 578 1280 575.538 1280 572.5C1280 572.331 1280.01 572.165 1280.02 572ZM1314.02 572C1314.01 571.835 1314 571.669 1314 571.5C1314 568.462 1316.46 566 1319.5 566C1322.54 566 1325 568.462 1325 571.5C1325 571.669 1324.99 571.835 1324.98 572C1324.99 572.165 1325 572.331 1325 572.5C1325 575.538 1322.54 578 1319.5 578C1316.46 578 1314 575.538 1314 572.5C1314 572.331 1314.01 572.165 1314.02 572ZM1382 620.5C1382 623.538 1384.46 626 1387.5 626C1390.54 626 1393 623.538 1393 620.5C1393 617.462 1390.54 615 1387.5 615C1384.46 615 1382 617.462 1382 620.5ZM1353.5 626C1350.46 626 1348 623.538 1348 620.5C1348 617.462 1350.46 615 1353.5 615C1356.54 615 1359 617.462 1359 620.5C1359 623.538 1356.54 626 1353.5 626ZM1280 620.5C1280 623.538 1282.46 626 1285.5 626C1288.54 626 1291 623.538 1291 620.5C1291 617.462 1288.54 615 1285.5 615C1282.46 615 1280 617.462 1280 620.5ZM1319.5 626C1316.46 626 1314 623.538 1314 620.5C1314 617.462 1316.46 615 1319.5 615C1322.54 615 1325 617.462 1325 620.5C1325 623.538 1322.54 626 1319.5 626ZM1382 668.5C1382 671.538 1384.46 674 1387.5 674C1390.54 674 1393 671.538 1393 668.5C1393 665.462 1390.54 663 1387.5 663C1384.46 663 1382 665.462 1382 668.5ZM1353.5 674C1350.46 674 1348 671.538 1348 668.5C1348 665.462 1350.46 663 1353.5 663C1356.54 663 1359 665.462 1359 668.5C1359 671.538 1356.54 674 1353.5 674ZM1280 668.5C1280 671.538 1282.46 674 1285.5 674C1288.54 674 1291 671.538 1291 668.5C1291 665.462 1288.54 663 1285.5 663C1282.46 663 1280 665.462 1280 668.5ZM1319.5 674C1316.46 674 1314 671.538 1314 668.5C1314 665.462 1316.46 663 1319.5 663C1322.54 663 1325 665.462 1325 668.5C1325 671.538 1322.54 674 1319.5 674ZM1382 715.5C1382 718.538 1384.46 721 1387.5 721C1390.54 721 1393 718.538 1393 715.5C1393 712.462 1390.54 710 1387.5 710C1384.46 710 1382 712.462 1382 715.5ZM1353.5 721C1350.46 721 1348 718.538 1348 715.5C1348 712.462 1350.46 710 1353.5 710C1356.54 710 1359 712.462 1359 715.5C1359 718.538 1356.54 721 1353.5 721ZM1280 715.5C1280 718.538 1282.46 721 1285.5 721C1288.54 721 1291 718.538 1291 715.5C1291 712.462 1288.54 710 1285.5 710C1282.46 710 1280 712.462 1280 715.5ZM1319.5 721C1316.46 721 1314 718.538 1314 715.5C1314 712.462 1316.46 710 1319.5 710C1322.54 710 1325 712.462 1325 715.5C1325 718.538 1322.54 721 1319.5 721Z" fill="#1C25FF" fill-opacity="0.25"/>
<path d="M1223.14 664.292V676.708H1132.81L1155.65 696.842L1145.68 705.62L1105.86 670.5L1145.68 635.379L1155.65 644.158L1132.81 664.292H1223.14Z" fill="#FA00FF"/>
<g filter="url(#filter2_b_22_134)">
<path fill-rule="evenodd" clip-rule="evenodd" d="M504 389.297C487.935 394.294 470.775 397 452.822 397C353.693 397 278.735 314.49 278.735 219.5C278.735 214.292 278.96 209.121 279.403 204L364.98 204C364.161 209.04 363.735 214.218 363.735 219.5C363.735 270.586 403.621 312 452.822 312C471.869 312 489.519 305.794 504 295.223V389.297Z" fill="url(#paint2_linear_22_134)"/>
</g>
<path d="M420 628.5C628.586 628.5 791.5 454.674 791.5 248C791.5 41.3258 628.586 -132.5 420 -132.5C211.414 -132.5 48.5 41.3258 48.5 248C48.5 454.674 211.414 628.5 420 628.5Z" stroke="url(#paint3_linear_22_134)" stroke-opacity="0.33" stroke-width="217"/>
<path d="M6 903H1442" stroke="black"/>
</g>
<defs>
<filter id="filter0_f_22_134" x="-162.294" y="-0.106567" width="904.793" height="1158.15" filterUnits="userSpaceOnUse" color-interpolation-filters="sRGB">
<feFlood flood-opacity="0" result="BackgroundImageFix"/>
<feBlend mode="normal" in="SourceGraphic" in2="BackgroundImageFix" result="shape"/>
<feGaussianBlur stdDeviation="100" result="effect1_foregroundBlur_22_134"/>
</filter>
<filter id="filter1_f_22_134" x="-179.593" y="220.009" width="904.793" height="1158.15" filterUnits="userSpaceOnUse" color-interpolation-filters="sRGB">
<feFlood flood-opacity="0" result="BackgroundImageFix"/>
<feBlend mode="normal" in="SourceGraphic" in2="BackgroundImageFix" result="shape"/>
<feGaussianBlur stdDeviation="100" result="effect1_foregroundBlur_22_134"/>
</filter>
<filter id="filter2_b_22_134" x="277.735" y="203" width="227.265" height="195" filterUnits="userSpaceOnUse" color-interpolation-filters="sRGB">
<feFlood flood-opacity="0" result="BackgroundImageFix"/>
<feGaussianBlur in="BackgroundImageFix" stdDeviation="0.5"/>
<feComposite in2="SourceAlpha" operator="in" result="effect1_backgroundBlur_22_134"/>
<feBlend mode="normal" in="SourceGraphic" in2="effect1_backgroundBlur_22_134" result="shape"/>
</filter>
<linearGradient id="paint0_linear_22_134" x1="817.376" y1="968.442" x2="97.2156" y2="925.722" gradientUnits="userSpaceOnUse">
<stop stop-color="#0368FF" stop-opacity="0.46"/>
<stop offset="0.371" stop-color="#7437F6" stop-opacity="0.759"/>
<stop offset="1" stop-color="#F68DFF" stop-opacity="0"/>
</linearGradient>
<linearGradient id="paint1_linear_22_134" x1="800.076" y1="1188.56" x2="79.9164" y2="1145.84" gradientUnits="userSpaceOnUse">
<stop stop-color="#F5C974" stop-opacity="0.58"/>
<stop offset="0.225" stop-color="#F237F6" stop-opacity="0.759"/>
<stop offset="0.2251" stop-color="#F637EE" stop-opacity="0.759"/>
<stop offset="0.475" stop-color="#0368FF" stop-opacity="0.46"/>
<stop offset="1" stop-color="#F68DFF" stop-opacity="0"/>
</linearGradient>
<linearGradient id="paint2_linear_22_134" x1="317.114" y1="244.5" x2="523.904" y2="361.958" gradientUnits="userSpaceOnUse">
<stop stop-color="#FA00FF"/>
<stop offset="1" stop-color="#FA00FF" stop-opacity="0"/>
</linearGradient>
<linearGradient id="paint3_linear_22_134" x1="88.4687" y1="520" x2="378.75" y2="281.787" gradientUnits="userSpaceOnUse">
<stop stop-color="#FA00FF"/>
<stop offset="1" stop-color="#FA00FF" stop-opacity="0"/>
</linearGradient>
<clipPath id="clip0_22_134">
<rect width="1440" height="1024" fill="white"/>
</clipPath>
</defs>
</svg>
