<svg width="1440" height="1228" viewBox="0 0 1440 1228" fill="none" xmlns="http://www.w3.org/2000/svg">
<g clip-path="url(#clip0_15_6)">
<rect width="1440" height="1228" fill="#120720"/>
<g filter="url(#filter0_f_15_6)">
<rect x="639.531" y="520.054" width="523.673" height="193.908" transform="rotate(149.307 639.531 520.054)" fill="url(#paint0_linear_15_6)" fill-opacity="0.45"/>
</g>
<g filter="url(#filter1_f_15_6)">
<rect x="697.866" y="352.745" width="523.673" height="193.908" transform="rotate(149.307 697.866 352.745)" fill="url(#paint1_linear_15_6)" fill-opacity="0.45"/>
</g>
<g filter="url(#filter2_f_15_6)">
<rect x="1084.96" y="515.842" width="362.64" height="152.14" transform="rotate(-107.65 1084.96 515.842)" fill="url(#paint2_linear_15_6)" fill-opacity="0.45"/>
</g>
<g filter="url(#filter3_f_15_6)">
<rect x="1198.72" y="578.156" width="362.64" height="152.14" transform="rotate(-107.65 1198.72 578.156)" fill="url(#paint3_linear_15_6)" fill-opacity="0.45"/>
</g>
<path d="M408.711 596.774H412.526V586.789H408.711V596.774ZM408.711 612.37H412.526V602.385H408.711V612.37ZM408.711 627.966H412.526V617.981H408.711V627.966ZM408.711 643.562H412.526V633.577H408.711V643.562ZM408.711 659.157H412.526V649.173H408.711V659.157ZM408.711 674.753H412.526V664.769H408.711V674.753ZM410.847 692.814L406.484 680.803H401.884L408.62 696.647H411.833L410.847 692.814ZM414.589 680.803L410.099 692.832L409.241 696.647H412.435L419.171 680.803H414.589Z" fill="#FA00FF"/>
<circle cx="1017.5" cy="302.5" r="5.5" fill="#1C25FF" fill-opacity="0.25"/>
<circle cx="1017.5" cy="336.5" r="5.5" fill="#1C25FF" fill-opacity="0.25"/>
<circle cx="1017.5" cy="404.5" r="5.5" fill="#1C25FF" fill-opacity="0.25"/>
<circle cx="1017.5" cy="370.5" r="5.5" fill="#1C25FF" fill-opacity="0.25"/>
<circle cx="1065.5" cy="302.5" r="5.5" fill="#1C25FF" fill-opacity="0.25"/>
<circle cx="1065.5" cy="336.5" r="5.5" fill="#1C25FF" fill-opacity="0.25"/>
<circle cx="1065.5" cy="404.5" r="5.5" fill="#1C25FF" fill-opacity="0.25"/>
<circle cx="1065.5" cy="370.5" r="5.5" fill="#1C25FF" fill-opacity="0.25"/>
<circle cx="1113.5" cy="302.5" r="5.5" fill="#1C25FF" fill-opacity="0.25"/>
<circle cx="1113.5" cy="336.5" r="5.5" fill="#1C25FF" fill-opacity="0.25"/>
<circle cx="1113.5" cy="404.5" r="5.5" fill="#1C25FF" fill-opacity="0.25"/>
<circle cx="1113.5" cy="370.5" r="5.5" fill="#1C25FF" fill-opacity="0.25"/>
<circle cx="1161.5" cy="302.5" r="5.5" fill="#1C25FF" fill-opacity="0.25"/>
<circle cx="1161.5" cy="336.5" r="5.5" fill="#1C25FF" fill-opacity="0.25"/>
<circle cx="1161.5" cy="404.5" r="5.5" fill="#1C25FF" fill-opacity="0.25"/>
<circle cx="1161.5" cy="370.5" r="5.5" fill="#1C25FF" fill-opacity="0.25"/>
<circle cx="1209.5" cy="302.5" r="5.5" fill="#1C25FF" fill-opacity="0.25"/>
<circle cx="1209.5" cy="336.5" r="5.5" fill="#1C25FF" fill-opacity="0.25"/>
<circle cx="1209.5" cy="404.5" r="5.5" fill="#1C25FF" fill-opacity="0.25"/>
<circle cx="1209.5" cy="370.5" r="5.5" fill="#1C25FF" fill-opacity="0.25"/>
<circle cx="1256.5" cy="302.5" r="5.5" fill="#1C25FF" fill-opacity="0.25"/>
<circle cx="1256.5" cy="336.5" r="5.5" fill="#1C25FF" fill-opacity="0.25"/>
<circle cx="1256.5" cy="404.5" r="5.5" fill="#1C25FF" fill-opacity="0.25"/>
<circle cx="1256.5" cy="370.5" r="5.5" fill="#1C25FF" fill-opacity="0.25"/>
<circle cx="1174.45" cy="708.92" r="5.5" transform="rotate(90.2237 1174.45 708.92)" fill="#1C25FF" fill-opacity="0.25"/>
<circle cx="1140.45" cy="708.787" r="5.5" transform="rotate(90.2237 1140.45 708.787)" fill="#1C25FF" fill-opacity="0.25"/>
<circle cx="1072.45" cy="708.521" r="5.5" transform="rotate(90.2237 1072.45 708.521)" fill="#1C25FF" fill-opacity="0.25"/>
<circle cx="1106.45" cy="708.654" r="5.5" transform="rotate(90.2237 1106.45 708.654)" fill="#1C25FF" fill-opacity="0.25"/>
<circle cx="1174.27" cy="756.919" r="5.5" transform="rotate(90.2237 1174.27 756.919)" fill="#1C25FF" fill-opacity="0.25"/>
<circle cx="1140.27" cy="756.786" r="5.5" transform="rotate(90.2237 1140.27 756.786)" fill="#1C25FF" fill-opacity="0.25"/>
<circle cx="1072.27" cy="756.521" r="5.5" transform="rotate(90.2237 1072.27 756.521)" fill="#1C25FF" fill-opacity="0.25"/>
<circle cx="1106.27" cy="756.654" r="5.5" transform="rotate(90.2237 1106.27 756.654)" fill="#1C25FF" fill-opacity="0.25"/>
<circle cx="1174.08" cy="804.919" r="5.5" transform="rotate(90.2237 1174.08 804.919)" fill="#1C25FF" fill-opacity="0.25"/>
<circle cx="1140.08" cy="804.786" r="5.5" transform="rotate(90.2237 1140.08 804.786)" fill="#1C25FF" fill-opacity="0.25"/>
<circle cx="1072.08" cy="804.521" r="5.5" transform="rotate(90.2237 1072.08 804.521)" fill="#1C25FF" fill-opacity="0.25"/>
<circle cx="1106.08" cy="804.653" r="5.5" transform="rotate(90.2237 1106.08 804.653)" fill="#1C25FF" fill-opacity="0.25"/>
<circle cx="1173.89" cy="852.919" r="5.5" transform="rotate(90.2237 1173.89 852.919)" fill="#1C25FF" fill-opacity="0.25"/>
<circle cx="1139.89" cy="852.786" r="5.5" transform="rotate(90.2237 1139.89 852.786)" fill="#1C25FF" fill-opacity="0.25"/>
<circle cx="1071.89" cy="852.52" r="5.5" transform="rotate(90.2237 1071.89 852.52)" fill="#1C25FF" fill-opacity="0.25"/>
<circle cx="1105.89" cy="852.653" r="5.5" transform="rotate(90.2237 1105.89 852.653)" fill="#1C25FF" fill-opacity="0.25"/>
<circle cx="1173.7" cy="900.918" r="5.5" transform="rotate(90.2237 1173.7 900.918)" fill="#1C25FF" fill-opacity="0.25"/>
<circle cx="1139.7" cy="900.785" r="5.5" transform="rotate(90.2237 1139.7 900.785)" fill="#1C25FF" fill-opacity="0.25"/>
<circle cx="1071.7" cy="900.52" r="5.5" transform="rotate(90.2237 1071.7 900.52)" fill="#1C25FF" fill-opacity="0.25"/>
<circle cx="1105.7" cy="900.653" r="5.5" transform="rotate(90.2237 1105.7 900.653)" fill="#1C25FF" fill-opacity="0.25"/>
<circle cx="1173.52" cy="947.918" r="5.5" transform="rotate(90.2237 1173.52 947.918)" fill="#1C25FF" fill-opacity="0.25"/>
<circle cx="1139.52" cy="947.785" r="5.5" transform="rotate(90.2237 1139.52 947.785)" fill="#1C25FF" fill-opacity="0.25"/>
<circle cx="1071.52" cy="947.52" r="5.5" transform="rotate(90.2237 1071.52 947.52)" fill="#1C25FF" fill-opacity="0.25"/>
<circle cx="1105.52" cy="947.652" r="5.5" transform="rotate(90.2237 1105.52 947.652)" fill="#1C25FF" fill-opacity="0.25"/>
<path fill-rule="evenodd" clip-rule="evenodd" d="M315 442.5C315 445.538 312.538 448 309.5 448C306.462 448 304 445.538 304 442.5C304 439.462 306.462 437 309.5 437C312.538 437 315 439.462 315 442.5ZM315 476.5C315 479.538 312.538 482 309.5 482C306.462 482 304 479.538 304 476.5C304 473.462 306.462 471 309.5 471C312.538 471 315 473.462 315 476.5ZM309.5 550C312.538 550 315 547.538 315 544.5C315 541.462 312.538 539 309.5 539C306.462 539 304 541.462 304 544.5C304 547.538 306.462 550 309.5 550ZM315 510.5C315 513.538 312.538 516 309.5 516C306.462 516 304 513.538 304 510.5C304 507.462 306.462 505 309.5 505C312.538 505 315 507.462 315 510.5ZM357.5 448C360.538 448 363 445.538 363 442.5C363 439.462 360.538 437 357.5 437C354.462 437 352 439.462 352 442.5C352 445.538 354.462 448 357.5 448ZM363 476.5C363 479.538 360.538 482 357.5 482C354.462 482 352 479.538 352 476.5C352 473.462 354.462 471 357.5 471C360.538 471 363 473.462 363 476.5ZM357.5 550C360.538 550 363 547.538 363 544.5C363 541.462 360.538 539 357.5 539C354.462 539 352 541.462 352 544.5C352 547.538 354.462 550 357.5 550ZM363 510.5C363 513.538 360.538 516 357.5 516C354.462 516 352 513.538 352 510.5C352 507.462 354.462 505 357.5 505C360.538 505 363 507.462 363 510.5ZM405.5 448C408.538 448 411 445.538 411 442.5C411 439.462 408.538 437 405.5 437C402.462 437 400 439.462 400 442.5C400 445.538 402.462 448 405.5 448ZM411 476.5C411 479.538 408.538 482 405.5 482C402.462 482 400 479.538 400 476.5C400 473.462 402.462 471 405.5 471C408.538 471 411 473.462 411 476.5ZM405.5 550C408.538 550 411 547.538 411 544.5C411 541.462 408.538 539 405.5 539C402.462 539 400 541.462 400 544.5C400 547.538 402.462 550 405.5 550ZM411 510.5C411 513.538 408.538 516 405.5 516C402.462 516 400 513.538 400 510.5C400 507.462 402.462 505 405.5 505C408.538 505 411 507.462 411 510.5ZM453.5 448C456.538 448 459 445.538 459 442.5C459 439.462 456.538 437 453.5 437C450.462 437 448 439.462 448 442.5C448 445.538 450.462 448 453.5 448ZM459 476.5C459 479.538 456.538 482 453.5 482C450.462 482 448 479.538 448 476.5C448 473.462 450.462 471 453.5 471C456.538 471 459 473.462 459 476.5ZM453.5 550C456.538 550 459 547.538 459 544.5C459 541.462 456.538 539 453.5 539C450.462 539 448 541.462 448 544.5C448 547.538 450.462 550 453.5 550ZM459 510.5C459 513.538 456.538 516 453.5 516C450.462 516 448 513.538 448 510.5C448 507.462 450.462 505 453.5 505C456.538 505 459 507.462 459 510.5ZM501.5 448C504.538 448 507 445.538 507 442.5C507 439.462 504.538 437 501.5 437C498.462 437 496 439.462 496 442.5C496 445.538 498.462 448 501.5 448ZM507 476.5C507 479.538 504.538 482 501.5 482C498.462 482 496 479.538 496 476.5C496 473.462 498.462 471 501.5 471C504.538 471 507 473.462 507 476.5ZM501.5 550C504.538 550 507 547.538 507 544.5C507 541.462 504.538 539 501.5 539C498.462 539 496 541.462 496 544.5C496 547.538 498.462 550 501.5 550ZM507 510.5C507 513.538 504.538 516 501.5 516C498.462 516 496 513.538 496 510.5C496 507.462 498.462 505 501.5 505C504.538 505 507 507.462 507 510.5ZM549 447.978C548.835 447.992 548.669 448 548.5 448C545.462 448 543 445.538 543 442.5C543 439.462 545.462 437 548.5 437C548.669 437 548.835 437.008 549 437.022C549.165 437.008 549.331 437 549.5 437C552.538 437 555 439.462 555 442.5C555 445.538 552.538 448 549.5 448C549.331 448 549.165 447.992 549 447.978ZM549 481.978C548.835 481.992 548.669 482 548.5 482C545.462 482 543 479.538 543 476.5C543 473.462 545.462 471 548.5 471C548.669 471 548.835 471.008 549 471.022C549.165 471.008 549.331 471 549.5 471C552.538 471 555 473.462 555 476.5C555 479.538 552.538 482 549.5 482C549.331 482 549.165 481.992 549 481.978ZM549 549.978C548.835 549.992 548.669 550 548.5 550C545.462 550 543 547.538 543 544.5C543 541.462 545.462 539 548.5 539C548.669 539 548.835 539.008 549 539.022C549.165 539.008 549.331 539 549.5 539C552.538 539 555 541.462 555 544.5C555 547.538 552.538 550 549.5 550C549.331 550 549.165 549.992 549 549.978ZM549 515.978C548.835 515.992 548.669 516 548.5 516C545.462 516 543 513.538 543 510.5C543 507.462 545.462 505 548.5 505C548.669 505 548.835 505.008 549 505.022C549.165 505.008 549.331 505 549.5 505C552.538 505 555 507.462 555 510.5C555 513.538 552.538 516 549.5 516C549.331 516 549.165 515.992 549 515.978ZM597.5 448C600.538 448 603 445.538 603 442.5C603 439.462 600.538 437 597.5 437C594.462 437 592 439.462 592 442.5C592 445.538 594.462 448 597.5 448ZM603 476.5C603 479.538 600.538 482 597.5 482C594.462 482 592 479.538 592 476.5C592 473.462 594.462 471 597.5 471C600.538 471 603 473.462 603 476.5ZM597.5 550C600.538 550 603 547.538 603 544.5C603 541.462 600.538 539 597.5 539C594.462 539 592 541.462 592 544.5C592 547.538 594.462 550 597.5 550ZM603 510.5C603 513.538 600.538 516 597.5 516C594.462 516 592 513.538 592 510.5C592 507.462 594.462 505 597.5 505C600.538 505 603 507.462 603 510.5ZM645.5 448C648.538 448 651 445.538 651 442.5C651 439.462 648.538 437 645.5 437C642.462 437 640 439.462 640 442.5C640 445.538 642.462 448 645.5 448ZM651 476.5C651 479.538 648.538 482 645.5 482C642.462 482 640 479.538 640 476.5C640 473.462 642.462 471 645.5 471C648.538 471 651 473.462 651 476.5ZM645.5 550C648.538 550 651 547.538 651 544.5C651 541.462 648.538 539 645.5 539C642.462 539 640 541.462 640 544.5C640 547.538 642.462 550 645.5 550ZM651 510.5C651 513.538 648.538 516 645.5 516C642.462 516 640 513.538 640 510.5C640 507.462 642.462 505 645.5 505C648.538 505 651 507.462 651 510.5ZM692.5 448C695.538 448 698 445.538 698 442.5C698 439.462 695.538 437 692.5 437C689.462 437 687 439.462 687 442.5C687 445.538 689.462 448 692.5 448ZM698 476.5C698 479.538 695.538 482 692.5 482C689.462 482 687 479.538 687 476.5C687 473.462 689.462 471 692.5 471C695.538 471 698 473.462 698 476.5ZM692.5 550C695.538 550 698 547.538 698 544.5C698 541.462 695.538 539 692.5 539C689.462 539 687 541.462 687 544.5C687 547.538 689.462 550 692.5 550ZM698 510.5C698 513.538 695.538 516 692.5 516C689.462 516 687 513.538 687 510.5C687 507.462 689.462 505 692.5 505C695.538 505 698 507.462 698 510.5Z" fill="#1C25FF" fill-opacity="0.25"/>
<path d="M1368 183.856L1352.15 168.003L1367.99 152.153L1359.85 144L1344 159.85L1328.15 144L1320 152.153L1335.84 168.003L1320 183.853L1328.15 192L1344 176.15L1359.84 192L1368 183.856Z" fill="white"/>
<path d="M283 757.08L269.461 747.502L282.995 737.926L276.039 733L262.498 742.576L248.959 733L242 737.926L255.534 747.502L242 757.078L248.964 762L262.498 752.424L276.031 762L283 757.08Z" fill="white"/>
</g>
<defs>
<filter id="filter0_f_15_6" x="-109.762" y="153.309" width="949.293" height="834.046" filterUnits="userSpaceOnUse" color-interpolation-filters="sRGB">
<feFlood flood-opacity="0" result="BackgroundImageFix"/>
<feBlend mode="normal" in="SourceGraphic" in2="BackgroundImageFix" result="shape"/>
<feGaussianBlur stdDeviation="100" result="effect1_foregroundBlur_15_6"/>
</filter>
<filter id="filter1_f_15_6" x="-51.4269" y="-14" width="949.293" height="834.046" filterUnits="userSpaceOnUse" color-interpolation-filters="sRGB">
<feFlood flood-opacity="0" result="BackgroundImageFix"/>
<feBlend mode="normal" in="SourceGraphic" in2="BackgroundImageFix" result="shape"/>
<feGaussianBlur stdDeviation="100" result="effect1_foregroundBlur_15_6"/>
</filter>
<filter id="filter2_f_15_6" x="775" y="-75.857" width="654.934" height="791.699" filterUnits="userSpaceOnUse" color-interpolation-filters="sRGB">
<feFlood flood-opacity="0" result="BackgroundImageFix"/>
<feBlend mode="normal" in="SourceGraphic" in2="BackgroundImageFix" result="shape"/>
<feGaussianBlur stdDeviation="100" result="effect1_foregroundBlur_15_6"/>
</filter>
<filter id="filter3_f_15_6" x="888.769" y="-13.5427" width="654.934" height="791.699" filterUnits="userSpaceOnUse" color-interpolation-filters="sRGB">
<feFlood flood-opacity="0" result="BackgroundImageFix"/>
<feBlend mode="normal" in="SourceGraphic" in2="BackgroundImageFix" result="shape"/>
<feGaussianBlur stdDeviation="100" result="effect1_foregroundBlur_15_6"/>
</filter>
<linearGradient id="paint0_linear_15_6" x1="1163.2" y1="625.578" x2="678.273" y2="610.419" gradientUnits="userSpaceOnUse">
<stop stop-color="#0368FF" stop-opacity="0.46"/>
<stop offset="0.371" stop-color="#7437F6" stop-opacity="0.759"/>
<stop offset="1" stop-color="#F68DFF" stop-opacity="0"/>
</linearGradient>
<linearGradient id="paint1_linear_15_6" x1="1221.54" y1="458.27" x2="736.607" y2="443.11" gradientUnits="userSpaceOnUse">
<stop stop-color="#F5C974" stop-opacity="0.58"/>
<stop offset="0.225" stop-color="#F237F6" stop-opacity="0.759"/>
<stop offset="0.2251" stop-color="#F6B537" stop-opacity="0.759"/>
<stop offset="0.475" stop-color="#F237F6" stop-opacity="0.759"/>
<stop offset="1" stop-color="#F68DFF" stop-opacity="0"/>
</linearGradient>
<linearGradient id="paint2_linear_15_6" x1="1447.6" y1="598.636" x2="1111.71" y2="589.369" gradientUnits="userSpaceOnUse">
<stop stop-color="#0368FF" stop-opacity="0.46"/>
<stop offset="0.371" stop-color="#7437F6" stop-opacity="0.759"/>
<stop offset="1" stop-color="#F68DFF" stop-opacity="0"/>
</linearGradient>
<linearGradient id="paint3_linear_15_6" x1="1561.36" y1="660.951" x2="1225.48" y2="651.683" gradientUnits="userSpaceOnUse">
<stop stop-color="#F5C974" stop-opacity="0.58"/>
<stop offset="0.225" stop-color="#F237F6" stop-opacity="0.759"/>
<stop offset="0.2251" stop-color="#F6B537" stop-opacity="0.759"/>
<stop offset="0.475" stop-color="#0368FF" stop-opacity="0.46"/>
<stop offset="1" stop-color="#F68DFF" stop-opacity="0"/>
</linearGradient>
<clipPath id="clip0_15_6">
<rect width="1440" height="1228" fill="white"/>
</clipPath>
</defs>
</svg>
